<svg width="232" height="116" viewBox="0 0 232 116" fill="none" xmlns="http://www.w3.org/2000/svg">
<ellipse cx="116" cy="58" rx="116" ry="58" fill="black"/>
<path fill-rule="evenodd" clip-rule="evenodd" d="M116 116C180.065 116 232 90.0325 232 58C232 25.9675 180.065 0 116 0C51.935 0 0 25.9675 0 58C0 88.4851 47.0384 113.477 106.805 115.82C54.5183 113.636 13.4493 91.7984 13.4493 65.181C13.4493 37.1144 59.1119 14.3619 115.44 14.3619C171.767 14.3619 217.43 37.1144 217.43 65.181C217.43 93.2019 171.916 115.926 115.714 116C115.809 116 115.905 116 116 116Z" fill="url(#paint0_linear_8_18)"/>
<path d="M76.6234 76.28L76.7834 65.4C76.7834 64.6533 77.5568 64.1733 79.1034 63.96C80.6501 63.6933 81.9301 63.56 82.9434 63.56L86.0634 63.8C88.0901 64.12 89.1034 64.68 89.1034 65.48L88.7834 90.52C87.7168 91.2667 85.5568 92.0133 82.3034 92.76C79.1034 93.4533 75.4234 93.8 71.2634 93.8C63.5301 93.8 57.2901 91.2933 52.5434 86.28C47.7968 81.2667 45.4234 73.9067 45.4234 64.2C45.4234 55.9333 47.7434 49.2133 52.3834 44.04C57.0234 38.8667 63.4501 36.28 71.6634 36.28C75.3968 36.28 78.7568 36.6533 81.7434 37.4C84.7834 38.0933 86.8634 39.0533 87.9834 40.28C88.0368 40.7067 88.0634 41.5067 88.0634 42.68C88.0634 43.8533 87.6634 45.5333 86.8634 47.72C86.0634 49.8533 85.1568 51.4533 84.1434 52.52C83.1301 53.5867 82.3834 54.12 81.9034 54.12C81.4768 54.12 80.9968 53.9333 80.4634 53.56C79.9834 53.1333 78.9968 52.7067 77.5034 52.28C76.0101 51.8 74.5701 51.56 73.1834 51.56C69.8768 51.56 67.1834 52.6267 65.1034 54.76C63.0768 56.8933 62.0634 60.2 62.0634 64.68C62.0634 69.16 63.1034 72.5733 65.1834 74.92C67.3168 77.2133 69.7434 78.36 72.4634 78.36C75.2368 78.36 76.6234 77.6667 76.6234 76.28ZM119.591 36.28C123.484 36.28 126.898 36.84 129.831 37.96C132.818 39.0267 134.311 40.4933 134.311 42.36C134.311 44.2267 133.591 46.5467 132.151 49.32C130.764 52.04 129.591 53.4 128.631 53.4C128.364 53.4 128.044 53.2667 127.671 53C127.351 52.68 126.551 52.36 125.271 52.04C124.044 51.6667 122.978 51.48 122.071 51.48C118.978 51.48 116.471 52.5733 114.551 54.76C112.684 56.9467 111.751 60.3067 111.751 64.84C111.751 69.32 112.711 72.6533 114.631 74.84C116.604 77.0267 119.084 78.12 122.071 78.12C123.298 78.12 124.658 77.96 126.151 77.64C127.698 77.2667 128.791 76.76 129.431 76.12C129.538 76.0133 129.751 75.96 130.071 75.96C130.391 75.96 130.978 76.5733 131.831 77.8C132.738 78.9733 133.564 80.5467 134.311 82.52C135.058 84.44 135.431 85.9333 135.431 87C135.431 89.08 133.831 90.7333 130.631 91.96C127.431 93.1867 123.644 93.8 119.271 93.8C112.231 93.8 106.444 91.32 101.911 86.36C97.3776 81.4 95.1109 74.4133 95.1109 65.4C95.1109 56.3333 97.4309 49.2133 102.071 44.04C106.764 38.8667 112.604 36.28 119.591 36.28ZM179.155 93.16C174.515 93.16 172.008 92.4133 171.635 90.92L168.995 80.6H156.275L153.955 90.52C153.635 92.1733 151.075 93 146.275 93C143.715 93 141.821 92.8667 140.595 92.6C139.368 92.28 138.755 92.04 138.755 91.88L152.915 37.72C152.915 37.2933 156.568 37.08 163.875 37.08C171.181 37.08 174.835 37.2933 174.835 37.72L188.675 91.96C188.675 92.3333 187.448 92.6267 184.995 92.84C182.541 93.0533 180.595 93.16 179.155 93.16ZM158.275 70.44H166.675L163.075 53.88H162.595L158.275 70.44Z" fill="url(#paint1_linear_8_18)"/>
<defs>
<linearGradient id="paint0_linear_8_18" x1="232" y1="6.718e-06" x2="1.37791" y2="118.678" gradientUnits="userSpaceOnUse">
<stop stop-color="#E03131"/>
<stop offset="1" stop-color="#FA5252"/>
</linearGradient>
<linearGradient id="paint1_linear_8_18" x1="190" y1="25" x2="83.6661" y2="141.969" gradientUnits="userSpaceOnUse">
<stop stop-color="#E03131"/>
<stop offset="1" stop-color="#FA5252"/>
</linearGradient>
</defs>
</svg>
