<svg width="232" height="116" viewBox="0 0 232 116" fill="none" xmlns="http://www.w3.org/2000/svg">
<path fill-rule="evenodd" clip-rule="evenodd" d="M116 116C180.065 116 232 90.0325 232 58C232 25.9675 180.065 0 116 0C51.935 0 0 25.9675 0 58C0 88.4851 47.0384 113.477 106.805 115.82C54.5183 113.636 13.4493 91.7984 13.4493 65.181C13.4493 37.1144 59.1119 14.3619 115.44 14.3619C171.767 14.3619 217.43 37.1144 217.43 65.181C217.43 93.2019 171.916 115.926 115.714 116C115.809 116 115.905 116 116 116Z" fill="url(#paint0_linear_8_13)"/>
<path d="M75.6234 76.28L75.7834 65.4C75.7834 64.6533 76.5568 64.1733 78.1034 63.96C79.6501 63.6933 80.9301 63.56 81.9434 63.56L85.0634 63.8C87.0901 64.12 88.1034 64.68 88.1034 65.48L87.7834 90.52C86.7168 91.2667 84.5568 92.0133 81.3034 92.76C78.1034 93.4533 74.4234 93.8 70.2634 93.8C62.5301 93.8 56.2901 91.2933 51.5434 86.28C46.7968 81.2667 44.4234 73.9067 44.4234 64.2C44.4234 55.9333 46.7434 49.2133 51.3834 44.04C56.0234 38.8667 62.4501 36.28 70.6634 36.28C74.3968 36.28 77.7568 36.6533 80.7434 37.4C83.7834 38.0933 85.8634 39.0533 86.9834 40.28C87.0368 40.7067 87.0634 41.5067 87.0634 42.68C87.0634 43.8533 86.6634 45.5333 85.8634 47.72C85.0634 49.8533 84.1568 51.4533 83.1434 52.52C82.1301 53.5867 81.3834 54.12 80.9034 54.12C80.4768 54.12 79.9968 53.9333 79.4634 53.56C78.9834 53.1333 77.9968 52.7067 76.5034 52.28C75.0101 51.8 73.5701 51.56 72.1834 51.56C68.8768 51.56 66.1834 52.6267 64.1034 54.76C62.0768 56.8933 61.0634 60.2 61.0634 64.68C61.0634 69.16 62.1034 72.5733 64.1834 74.92C66.3168 77.2133 68.7434 78.36 71.4634 78.36C74.2368 78.36 75.6234 77.6667 75.6234 76.28ZM118.591 36.28C122.484 36.28 125.898 36.84 128.831 37.96C131.818 39.0267 133.311 40.4933 133.311 42.36C133.311 44.2267 132.591 46.5467 131.151 49.32C129.764 52.04 128.591 53.4 127.631 53.4C127.364 53.4 127.044 53.2667 126.671 53C126.351 52.68 125.551 52.36 124.271 52.04C123.044 51.6667 121.978 51.48 121.071 51.48C117.978 51.48 115.471 52.5733 113.551 54.76C111.684 56.9467 110.751 60.3067 110.751 64.84C110.751 69.32 111.711 72.6533 113.631 74.84C115.604 77.0267 118.084 78.12 121.071 78.12C122.298 78.12 123.658 77.96 125.151 77.64C126.698 77.2667 127.791 76.76 128.431 76.12C128.538 76.0133 128.751 75.96 129.071 75.96C129.391 75.96 129.978 76.5733 130.831 77.8C131.738 78.9733 132.564 80.5467 133.311 82.52C134.058 84.44 134.431 85.9333 134.431 87C134.431 89.08 132.831 90.7333 129.631 91.96C126.431 93.1867 122.644 93.8 118.271 93.8C111.231 93.8 105.444 91.32 100.911 86.36C96.3776 81.4 94.1109 74.4133 94.1109 65.4C94.1109 56.3333 96.4309 49.2133 101.071 44.04C105.764 38.8667 111.604 36.28 118.591 36.28ZM178.155 93.16C173.515 93.16 171.008 92.4133 170.635 90.92L167.995 80.6H155.275L152.955 90.52C152.635 92.1733 150.075 93 145.275 93C142.715 93 140.821 92.8667 139.595 92.6C138.368 92.28 137.755 92.04 137.755 91.88L151.915 37.72C151.915 37.2933 155.568 37.08 162.875 37.08C170.181 37.08 173.835 37.2933 173.835 37.72L187.675 91.96C187.675 92.3333 186.448 92.6267 183.995 92.84C181.541 93.0533 179.595 93.16 178.155 93.16ZM157.275 70.44H165.675L162.075 53.88H161.595L157.275 70.44Z" fill="url(#paint1_linear_8_13)"/>
<defs>
<linearGradient id="paint0_linear_8_13" x1="232" y1="6.718e-06" x2="1.37791" y2="118.678" gradientUnits="userSpaceOnUse">
<stop stop-color="#E03131"/>
<stop offset="1" stop-color="#FA5252"/>
</linearGradient>
<linearGradient id="paint1_linear_8_13" x1="189" y1="25" x2="82.6661" y2="141.969" gradientUnits="userSpaceOnUse">
<stop stop-color="#E03131"/>
<stop offset="1" stop-color="#FA5252"/>
</linearGradient>
</defs>
</svg>
